<?xml version="1.0" encoding="utf-8"?>
<!-- Generator: Adobe Illustrator 25.2.1, SVG Export Plug-In . SVG Version: 6.00 Build 0)  -->
<svg version="1.1" id="Layer_1" xmlns="http://www.w3.org/2000/svg" xmlns:xlink="http://www.w3.org/1999/xlink" x="0px" y="0px"
	 viewBox="0 0 512 512" style="enable-background:new 0 0 512 512;" xml:space="preserve">
<style type="text/css">
	.st0{fill:#A179DC;}
	.st1{fill:#280068;}
	.st2{fill:#390091;}
	.st3{fill:#FFFFFF;}
</style>
<g>
	<g>
		<path class="st0" d="M489.3,150.8c0-8.6-1.8-16.1-5.5-22.6c-3.6-6.4-9.1-11.7-16.4-16C407,77.4,346.6,42.7,286.3,7.9
			c-16.3-9.4-32-9-48.2,0.5C214.1,22.5,93.8,91.4,58,112.2C43.2,120.7,36,133.8,36,150.8c0,70,0,140,0,209.9
			c0,8.4,1.8,15.8,5.3,22.2c3.6,6.6,9.2,12.1,16.6,16.4c35.8,20.8,156.1,89.7,180.1,103.8c16.2,9.5,31.9,9.9,48.2,0.5
			c60.3-34.8,120.7-69.5,181.1-104.3c7.5-4.3,13-9.8,16.6-16.4c3.5-6.4,5.3-13.8,5.3-22.2C489.3,360.7,489.3,220.8,489.3,150.8"/>
		<path class="st1" d="M263.4,255.1L41.3,382.9c3.6,6.6,9.2,12.1,16.6,16.4c35.8,20.8,156.1,89.7,180.1,103.8
			c16.2,9.5,31.9,9.9,48.2,0.5c60.3-34.8,120.7-69.5,181.1-104.3c7.5-4.3,13-9.8,16.6-16.4L263.4,255.1"/>
		<path class="st2" d="M489.3,150.8c0-8.6-1.8-16.1-5.5-22.6L263.4,255.1L484,382.9c3.5-6.4,5.3-13.8,5.3-22.2
			C489.3,360.7,489.3,220.8,489.3,150.8"/>
		<path class="st3" d="M394.1,207.3v23.9H418v-23.9H430v23.9h23.9v11.9H430V267h23.9V279H430v23.9H418V279h-23.9v23.9h-11.9V279
			h-23.9V267h23.9v-23.9h-23.9v-11.9h23.9v-23.9H394.1z M418,243.1h-23.9V267H418V243.1z"/>
		<path class="st3" d="M263.8,87.2c62.3,0,116.8,33.9,145.9,84.2l-0.3-0.5l-73.3,42.2c-14.4-24.5-40.9-41-71.3-41.3l-1,0
			c-46.3,0-83.9,37.6-83.9,83.9c0,15.2,4,29.4,11.1,41.6c14.5,25.2,41.7,42.3,72.8,42.3c31.4,0,58.7-17.2,73.1-42.8l-0.3,0.6
			l73.2,42.4c-28.8,49.9-82.5,83.6-144.1,84.3l-1.9,0c-62.5,0-117.1-34.1-146.2-84.6c-14.2-24.7-22.3-53.3-22.3-83.9
			C95.3,162.7,170.8,87.2,263.8,87.2z"/>
	</g>
</g>
</svg>
