<?xml version="1.0" encoding="utf-8"?>
<!-- Generator: Adobe Illustrator 25.2.1, SVG Export Plug-In . SVG Version: 6.00 Build 0)  -->
<svg version="1.1" id="Layer_1" xmlns="http://www.w3.org/2000/svg" xmlns:xlink="http://www.w3.org/1999/xlink" x="0px" y="0px"
	 viewBox="0 0 512 512" style="enable-background:new 0 0 512 512;" xml:space="preserve">
<style type="text/css">
	.st0{fill:#E34E26;}
	.st1{fill:#EF662A;}
	.st2{fill:#FFFFFF;}
	.st3{fill:#EBEBEB;}
	.st4{fill:#484747;}
	.st5{fill-rule:evenodd;clip-rule:evenodd;fill:#0075BD;}
	.st6{fill-rule:evenodd;clip-rule:evenodd;fill:#0085CB;}
	.st7{fill:#0084BF;}
	.st8{fill:#F0F0F0;}
	.st9{fill-rule:evenodd;clip-rule:evenodd;fill:#1D1D1B;}
</style>
<g>
	<g>
		<g>
			<path d="M-298.3-504h23.1v22.8h21.1V-504h23.1v69h-23.1v-23.1h-21.1v23.1h-23.1L-298.3-504L-298.3-504z"/>
			<path d="M-200.7-481.1H-221V-504h63.7v22.9h-20.3v46.1h-23.1L-200.7-481.1L-200.7-481.1z"/>
			<path d="M-147.2-504h24.1l14.8,24.3l14.8-24.3h24.1v69h-23v-34.2l-15.9,24.5h-0.4l-15.9-24.5v34.2h-22.6V-504z"/>
			<path d="M-57.9-504h23.1v46.2h32.5v22.8h-55.5V-504z"/>
		</g>
	</g>
</g>
<g id="Guides_to_delete">
	<g>
		<polygon class="st0" points="-299.5,-33.3 -332.7,-404.7 31,-404.7 -2.1,-33.2 -150.9,8 		"/>
		<polygon class="st1" points="-150.8,-374.3 -150.8,-23.6 -30.5,-56.9 -2.2,-374.3 		"/>
		<polygon class="st2" points="-264.9,-328.8 -252.6,-191 -94.7,-191 -100,-131.9 -150.9,-118.2 -201.6,-131.9 -205,-169.9 
			-250.7,-169.9 -244.2,-96.7 -150.9,-70.8 -57.4,-96.7 -44.9,-236.6 -211,-236.6 -215.1,-283.2 -40.9,-283.2 -40.8,-283.2 
			-36.7,-328.8 		"/>
		<g>
			<polygon class="st3" points="-150.8,-328.8 -264.9,-328.8 -252.6,-191 -150.8,-191 -150.8,-236.6 -211,-236.6 -215.1,-283.2 
				-150.8,-283.2 			"/>
			<polygon class="st3" points="-150.8,-118.2 -150.9,-118.2 -201.6,-131.9 -205,-169.9 -250.7,-169.9 -244.2,-96.7 -150.9,-70.8 
				-150.8,-70.8 			"/>
		</g>
	</g>
</g>
<polyline class="st4" points="75.5,100.6 436.5,100.6 404.2,469.6 257,512 105.8,469.6 "/>
<polyline class="st4" points="257.1,136.3 257.1,476.3 378.7,441.3 405.4,136.3 "/>
<polyline class="st4" points="311.5,312.4 257.1,312.4 257.1,381.9 305.4,372.9 "/>
<polyline class="st4" points="140.1,179.3 146.1,223.7 255,223.6 148.1,270 154.2,312.4 257.1,312.4 257.1,179.3 "/>
<polyline class="st4" points="204.6,370.9 200.6,336.6 156.2,336.6 162.2,407.2 257,433.4 257.1,433.3 257.1,381.9 "/>
<polyline class="st4" points="359.9,266.3 262.7,266.3 368.2,223.1 368.2,179.3 257.1,179.3 257.1,312.4 311.5,312.4 305.4,372.9 
	257.1,381.9 257.1,433.3 347.8,405.1 "/>
<polyline class="st4" points="148.8,0 148.8,69.1 205.7,69.1 205.7,46.7 173.2,46.7 173.2,23.4 205.7,23.4 205.7,0 "/>
<polyline class="st4" points="228.5,0 228.5,18.7 248.3,46.7 230.1,46.7 230.1,69.1 284.9,69.1 284.9,47.8 266.6,24.4 284.9,24.4 
	284.9,0 "/>
<polyline class="st4" points="306.8,0 306.8,18.7 326.6,46.7 308.4,46.7 308.4,69.1 363.2,69.1 363.2,47.8 344.9,24.4 363.2,24.4 
	363.2,0 "/>
<polyline class="st5" points="75.5,100.6 436.5,100.6 404.2,469.6 257,512 105.8,469.6 "/>
<polyline class="st6" points="257.1,136.3 257.1,476.3 378.7,441.3 405.4,136.3 "/>
<polyline class="st7" points="311.5,312.4 257.1,312.4 257.1,381.9 305.4,372.9 "/>
<polyline class="st8" points="140.1,179.3 146.1,223.7 255,223.6 148.1,270 154.2,312.4 257.1,312.4 257.1,179.3 "/>
<polyline class="st8" points="204.6,370.9 200.6,336.6 156.2,336.6 162.2,407.2 257,433.4 257.1,433.3 257.1,381.9 "/>
<polyline class="st2" points="359.9,266.3 262.7,266.3 368.2,223.1 368.2,179.3 257.1,179.3 257.1,312.4 311.5,312.4 305.4,372.9 
	257.1,381.9 257.1,433.3 347.8,405.1 "/>
<polyline class="st9" points="148.8,0 148.8,69.1 205.7,69.1 205.7,46.7 173.2,46.7 173.2,23.4 205.7,23.4 205.7,0 "/>
<polyline class="st9" points="228.5,0 228.5,18.7 248.3,46.7 230.1,46.7 230.1,69.1 284.9,69.1 284.9,47.8 266.6,24.4 284.9,24.4 
	284.9,0 "/>
<polyline class="st9" points="306.8,0 306.8,18.7 326.6,46.7 308.4,46.7 308.4,69.1 363.2,69.1 363.2,47.8 344.9,24.4 363.2,24.4 
	363.2,0 "/>
</svg>
