<?xml version="1.0" encoding="utf-8"?>
<!-- Generator: Adobe Illustrator 25.2.1, SVG Export Plug-In . SVG Version: 6.00 Build 0)  -->
<svg version="1.1" id="Layer_1" xmlns="http://www.w3.org/2000/svg" xmlns:xlink="http://www.w3.org/1999/xlink" x="0px" y="0px"
	 viewBox="0 0 512 512" style="enable-background:new 0 0 512 512;" xml:space="preserve">
<style type="text/css">
	.st0{fill:#E34E26;}
	.st1{fill:#EF662A;}
	.st2{fill:#FFFFFF;}
	.st3{fill:#EBEBEB;}
	.st4{fill:#E5A229;}
	.st5{fill:#F1BE21;}
	.st6{fill:#EBEAEA;}
	.st7{fill:#231F20;}
	.st8{fill:#484747;}
	.st9{fill-rule:evenodd;clip-rule:evenodd;fill:#0075BD;}
	.st10{fill-rule:evenodd;clip-rule:evenodd;fill:#0085CB;}
	.st11{fill:#0084BF;}
	.st12{fill:#F0F0F0;}
	.st13{fill-rule:evenodd;clip-rule:evenodd;fill:#1D1D1B;}
</style>
<g>
	<g>
		<g>
			<path d="M-298.3-504h23.1v22.8h21.1V-504h23.1v69h-23.1v-23.1h-21.1v23.1h-23.1L-298.3-504L-298.3-504z"/>
			<path d="M-200.7-481.1H-221V-504h63.7v22.9h-20.3v46.1h-23.1L-200.7-481.1L-200.7-481.1z"/>
			<path d="M-147.2-504h24.1l14.8,24.3l14.8-24.3h24.1v69h-23v-34.2l-15.9,24.5h-0.4l-15.9-24.5v34.2h-22.6V-504z"/>
			<path d="M-57.9-504h23.1v46.2h32.5v22.8h-55.5V-504z"/>
		</g>
	</g>
</g>
<g id="Guides_to_delete">
	<g>
		<polygon class="st0" points="-299.5,-33.3 -332.7,-404.7 31,-404.7 -2.1,-33.2 -150.9,8 		"/>
		<polygon class="st1" points="-150.8,-374.3 -150.8,-23.6 -30.5,-56.9 -2.2,-374.3 		"/>
		<polygon class="st2" points="-264.9,-328.8 -252.6,-191 -94.7,-191 -100,-131.9 -150.9,-118.2 -201.6,-131.9 -205,-169.9 
			-250.7,-169.9 -244.2,-96.7 -150.9,-70.8 -57.4,-96.7 -44.9,-236.6 -211,-236.6 -215.1,-283.2 -40.9,-283.2 -40.8,-283.2 
			-36.7,-328.8 		"/>
		<g>
			<polygon class="st3" points="-150.8,-328.8 -264.9,-328.8 -252.6,-191 -150.8,-191 -150.8,-236.6 -211,-236.6 -215.1,-283.2 
				-150.8,-283.2 			"/>
			<polygon class="st3" points="-150.8,-118.2 -150.9,-118.2 -201.6,-131.9 -205,-169.9 -250.7,-169.9 -244.2,-96.7 -150.9,-70.8 
				-150.8,-70.8 			"/>
		</g>
	</g>
</g>
<g>
	<polygon class="st4" points="446.5,99.9 264.2,99.9 264.2,99.9 81.9,99.9 116,470.7 264.2,512.7 264.2,512.7 264.2,512.7 
		264.2,512.7 264.2,512.7 412.3,470.7 	"/>
	<polygon class="st5" points="264.2,130.1 264.2,481.3 264.2,481.3 384.2,447.3 413.4,130.1 	"/>
	<polygon class="st2" points="359.7,175.6 175.1,175.6 162.3,314.4 162.6,313.6 319.3,313.6 314.2,372.3 264.2,386.7 213.4,372.1 
		210.4,336.5 164.3,336.5 170.9,407.5 264.2,434 357.5,407.5 370.4,268.2 204,268.2 206.1,221.7 321.6,221.7 323.3,248.3 
		369.8,248.3 	"/>
	<g>
		<path class="st6" d="M264.2,175.6h-89.1l-12.8,138.8l0.3-0.9h101.6v-45.4h-53.8l2.1-46.5h51.6V175.6z M210.4,336.5h-46.1l6.6,71
			l93.3,26.4v-47.3l-50.8-14.6L210.4,336.5z"/>
	</g>
	<g>
		<polygon class="st7" points="228.7,45.3 196.3,45.3 196.3,68.5 228.7,68.5 246.1,68.5 251.9,68.5 251.9,-0.7 228.7,-0.7 		"/>
		<path class="st7" d="M332.1-0.3h-56.6c0,0,0,12.2,0,24.2c7.6,7.6,11.5,11.2,22.5,22.1c-6.4,0-22.5,0-22.5,0v22.1h56.6V46.1
			l-22.6-22.2h22.6V-0.3z"/>
	</g>
</g>
<polyline class="st8" points="671.1,404 727.7,404 722.6,461.9 699.5,468.5 675.8,461.9 "/>
<polyline class="st8" points="699.6,409.6 699.6,462.9 718.6,457.4 722.8,409.6 "/>
<polyline class="st8" points="708.1,437.2 699.6,437.2 699.6,448.1 707.1,446.7 "/>
<polyline class="st8" points="681.2,416.4 682.2,423.3 699.2,423.3 682.5,430.6 683.4,437.2 699.6,437.2 699.6,416.4 "/>
<polyline class="st8" points="691.3,446.4 690.7,441 683.7,441 684.7,452.1 699.5,456.2 699.6,456.2 699.6,448.1 "/>
<polyline class="st8" points="715.7,430 700.4,430 717,423.2 717,416.4 699.6,416.4 699.6,437.2 708.1,437.2 707.1,446.7 
	699.6,448.1 699.6,456.2 713.8,451.8 "/>
<polyline class="st8" points="682.6,388.3 682.6,399.1 691.5,399.1 691.5,395.6 686.4,395.6 686.4,391.9 691.5,391.9 691.5,388.3 
	"/>
<polyline class="st8" points="695.1,388.3 695.1,391.2 698.2,395.6 695.3,395.6 695.3,399.1 703.9,399.1 703.9,395.8 701,392.1 
	703.9,392.1 703.9,388.3 "/>
<polyline class="st8" points="707.3,388.3 707.3,391.2 710.5,395.6 707.6,395.6 707.6,399.1 716.2,399.1 716.2,395.8 713.3,392.1 
	716.2,392.1 716.2,388.3 "/>
<polyline class="st9" points="671.1,404 727.7,404 722.6,461.9 699.5,468.5 675.8,461.9 "/>
<polyline class="st10" points="699.6,409.6 699.6,462.9 718.6,457.4 722.8,409.6 "/>
<polyline class="st11" points="708.1,437.2 699.6,437.2 699.6,448.1 707.1,446.7 "/>
<polyline class="st12" points="681.2,416.4 682.2,423.3 699.2,423.3 682.5,430.6 683.4,437.2 699.6,437.2 699.6,416.4 "/>
<polyline class="st12" points="691.3,446.4 690.7,441 683.7,441 684.7,452.1 699.5,456.2 699.6,456.2 699.6,448.1 "/>
<polyline class="st2" points="715.7,430 700.4,430 717,423.2 717,416.4 699.6,416.4 699.6,437.2 708.1,437.2 707.1,446.7 
	699.6,448.1 699.6,456.2 713.8,451.8 "/>
<polyline class="st13" points="682.6,388.3 682.6,399.1 691.5,399.1 691.5,395.6 686.4,395.6 686.4,391.9 691.5,391.9 691.5,388.3 
	"/>
<polyline class="st13" points="695.1,388.3 695.1,391.2 698.2,395.6 695.3,395.6 695.3,399.1 703.9,399.1 703.9,395.8 701,392.1 
	703.9,392.1 703.9,388.3 "/>
<polyline class="st13" points="707.3,388.3 707.3,391.2 710.5,395.6 707.6,395.6 707.6,399.1 716.2,399.1 716.2,395.8 713.3,392.1 
	716.2,392.1 716.2,388.3 "/>
</svg>
