<?xml version="1.0" encoding="utf-8"?>
<!-- Generator: Adobe Illustrator 25.2.1, SVG Export Plug-In . SVG Version: 6.00 Build 0)  -->
<svg version="1.1" id="Capa_1" xmlns="http://www.w3.org/2000/svg" xmlns:xlink="http://www.w3.org/1999/xlink" x="0px" y="0px"
	 viewBox="0 0 322.9 91.9" style="enable-background:new 0 0 322.9 91.9;" xml:space="preserve">
<style type="text/css">
	.st0{fill-rule:evenodd;clip-rule:evenodd;fill:#6D8BC6;stroke:#1D1D1B;stroke-miterlimit:10;}
	.st1{fill-rule:evenodd;clip-rule:evenodd;fill:#FFFFFF;stroke:#1D1D1B;stroke-miterlimit:10;}
	.st2{fill-rule:evenodd;clip-rule:evenodd;fill:#76BB6A;stroke:#1D1D1B;stroke-miterlimit:10;}
	.st3{fill-rule:evenodd;clip-rule:evenodd;fill:#75BA69;stroke:#1D1D1B;stroke-miterlimit:10;}
</style>
<path class="st0" d="M161.5,26.6c-3.4,0-6.7,0.2-10.1,0c-1.7-0.1-2.4,0.5-2.7,2.2c-1,6.8-2,13.7-3.1,20.5
	c-1.2,7.4-2.1,14.8-3.7,22.2c-2.7,12.1-11.9,20.2-24.2,20.3c-24.1,0.2-48.1,0.4-72.2-0.1c-11.5-0.2-20.1-7.6-23.2-20
	C20.5,64,20,56.2,18.8,48.4c-1.1-6.8-2.1-13.7-3-20.5c-0.2-1.2-0.7-1.6-1.8-1.6c-2,0.1-4.1,0-6.1,0.2c-4.7,0.5-8-2.6-7.9-7.3
	c0.1-2.6,2.9-5.1,6.2-5.3c2.2-0.1,4.5,0,6.8,0c4.4,0.1,7.9-1.7,10.6-5.2c4-5.2,9.4-7.5,15.7-7.6c23.3-0.5,46.6-0.2,70-0.3
	c5.6,0,11.2,0,16.8,0.3c6.5,0.3,12.1,3.1,16,8.3c2.8,3.7,6,4.8,10.3,4.4c3-0.3,6.1,0,9.2,0c0.4,0.5,0.6,1.1,0.7,1.8
	c0.1,3,0.1,6.1,0,9.1C162.1,25.5,162,26.1,161.5,26.6z"/>
<path class="st1" d="M43.4,13.6c-1.4,0-2.9,0.1-4.3,0.4c-6.8,1.2-11.3,7.7-10.3,14.4c1.9,12.5,3.7,25,5.4,37.6
	c1.2,8.8,5.9,13.2,14.8,13.2c22.2,0,44.5,0,66.7,0c2.1,0,4.1-0.2,6-0.9c5.3-2.1,7.5-6.3,8.3-11.6c1.9-12.1,3.7-24.1,5.6-36.2
	c1.4-8.4-2.2-14.5-9.7-16.3c-1.6-0.4-3.3-0.5-5-0.5c-13,0-26,0-38.9,0C69.2,13.6,56.3,13.6,43.4,13.6z"/>
<g>
	<path class="st2" d="M161.5,26.6c0-4.2,0-8.5,0-12.7c4.3,0,8.6-0.1,12.9,0c2.1,0,3.6-0.7,4.8-2.4c5.4-7.1,12.4-10.5,21.4-10.5
		c23-0.1,45.9-0.2,68.9,0c6,0,12-0.4,17.9,0.6c4.8,0.8,8.9,2.9,11.8,6.8c3.2,4.2,7.3,6,12.5,5.6c1.4-0.1,2.8-0.2,4.2-0.1
		c4.7,0.1,7.3,2.7,7.1,7.1c-0.1,3.3-3.7,5.9-7.8,5.6c-2-0.1-3.9-0.1-5.9-0.2c-1.5-0.1-2,0.6-2.2,2c-1.9,13.4-3.8,26.8-5.8,40.2
		c-2.2,14.5-12.3,23.3-27,23.3c-16.5,0.1-33,0-49.4,0c-6.4,0-12.8,0.1-19.3-0.1c-13-0.4-22.6-8.6-24.8-21.3
		c-2.3-13-4.2-26.1-6.3-39.2c-0.7-4.6-0.6-4.6-5.3-4.6C166.7,26.7,164.1,26.6,161.5,26.6z"/>
	<path class="st1" d="M241.2,13.6c13.2,0,26.4,0,39.6,0c6.9,0,12.2,4,13.6,10.1c0.6,2.7,0,5.4-0.3,8c-1.7,12-3.5,23.9-5.3,35.8
		c-1.1,7.3-6.1,11.6-13.6,11.6c-22.8,0-45.6,0-68.4,0c-7,0-12.2-4.2-13.3-11.2c-2.1-12.9-4.2-25.9-6.1-38.8
		c-1.3-9.3,4.4-15.5,14-15.6C214.6,13.6,227.9,13.6,241.2,13.6z"/>
</g>
<path class="st3" d="M252.5,24c8.3,0,16.6,0,24.9,0c4.3,0,7.2,2.6,7.4,6.4c0.2,4.2-2.3,6.9-6.7,7.3c-1,0.1-2,0-3.1,0
	c-15.2,0-30.5,0-45.7,0c-0.9,0-1.9,0-2.8-0.1c-4.3-0.3-6.8-2.9-6.8-7c0.1-3.8,2.8-6.5,6.9-6.7c2.2-0.1,4.4,0,6.6,0
	C239.7,24,246.1,24,252.5,24z"/>
<path class="st2" d="M210.2,31.4c0,4.1-2.7,7-6.7,7c-3.6,0-6.5-2.9-6.6-6.8c-0.1-4.1,2.7-7.1,6.6-7.1
	C207.4,24.5,210.1,27.3,210.2,31.4z"/>
</svg>
