<?xml version="1.0" encoding="utf-8"?>
<!-- Generator: Adobe Illustrator 25.0.0, SVG Export Plug-In . SVG Version: 6.00 Build 0)  -->
<svg version="1.1" id="Layer_1" xmlns="http://www.w3.org/2000/svg" xmlns:xlink="http://www.w3.org/1999/xlink" x="0px" y="0px"
	 viewBox="0 0 512 512" style="enable-background:new 0 0 512 512;" xml:space="preserve">
<style type="text/css">
	.st0{fill-rule:evenodd;clip-rule:evenodd;fill:#8E714E;}
	.st1{fill-rule:evenodd;clip-rule:evenodd;fill:#442D22;}
	.st2{fill-rule:evenodd;clip-rule:evenodd;fill:#FFFFFF;}
	.st3{fill-rule:evenodd;clip-rule:evenodd;fill:#A6A385;}
	.st4{fill-rule:evenodd;clip-rule:evenodd;fill:#499D4A;}
	.st5{fill-rule:evenodd;clip-rule:evenodd;fill:#58AA50;}
</style>
<g>
	<g>
		<path class="st0" d="M470.6,388.9c-0.6,0.1-1.1,1.3-1.1,2c-0.1,4.4-0.2,16.1-0.2,24c0,0.2,0.3,0.7,0.7,0.7c1.7,0.1,5.6,0.2,9,0.2
			c4.7,0,7.5-0.7,9-1.3c4-2,5.8-6.3,5.8-11c0-10.7-7.5-14.8-18.6-14.8C474.4,388.6,472.2,388.6,470.6,388.9L470.6,388.9L470.6,388.9
			z M499,438.2c0-10.9-8-17-22.6-17c-0.7,0-5.3-0.1-6.4,0.1c-0.3,0.1-0.8,0.3-0.8,0.7c0,7.8-0.1,20.3,0.2,25.1
			c0.2,2.1,1.8,5.1,3.6,6c2,1.1,6.5,1.3,9.6,1.3C491.4,454.4,499,449.6,499,438.2L499,438.2L499,438.2z M448.1,382.9
			c1.1,0,4.4,0.3,12.9,0.3c8,0,14.4-0.2,22.3-0.2c9.6,0,22.8,3.4,22.8,17.7c0,7.1-5,12.7-11.5,15.4c-0.3,0.1-0.3,0.3,0,0.4
			c9.3,2.3,17.4,8,17.4,18.8c0,10.6-6.6,17.3-16.2,21.5c-5.8,2.5-13.1,3.4-20.5,3.4c-5.6,0-20.7-0.7-29.1-0.4
			c-0.9-0.3,0.8-4.3,1.5-5c2-0.1,3.5-0.2,5.6-0.9c3-0.8,3.3-1.7,3.7-6.2c0.2-3.9,0.2-17.5,0.2-27.2c0-13.3,0.1-22.4,0-26.8
			c-0.1-3.4-1.3-4.5-3.7-5.2c-1.9-0.3-5-0.8-7.5-1.1C445.5,387.1,447.4,383.3,448.1,382.9L448.1,382.9L448.1,382.9z M384.5,451.4
			c2.6,2.1,7.8,3,12.5,3c6,0,11.9-1.1,17.6-6.3c5.8-5.3,9.9-13.4,9.9-26.4c0-12.5-4.7-22.6-14.4-28.5c-5.5-3.4-12.6-4.8-20.7-4.8
			c-2.4,0-4.7,0.1-6.2,0.8c-0.3,0.2-1.1,1.2-1.1,1.8c-0.2,2.2-0.2,19.2-0.2,29.1c0,10.2,0,24.6,0.2,26.2
			C382.1,447.8,382.8,450.3,384.5,451.4L384.5,451.4L384.5,451.4z M359.5,382.9c2.1,0,10.1,0.3,14,0.3c6.9,0,11.9-0.3,25-0.3
			c11,0,20.3,3,26.9,8.6c8,6.9,12.2,16.5,12.2,28.2c0,16.6-7.6,26.2-15.2,31.7c-7.6,5.6-17.5,8.9-31.6,8.9c-7.5,0-20.4-0.2-31.1-0.3
			h-0.1c-0.6-1,0.9-4.8,1.8-5c2.9-0.3,3.6-0.4,5.1-1c2.3-0.9,2.8-2.1,3.1-6.2c0.3-7.6,0.2-16.8,0.2-27.1c0-7.4,0.1-21.8-0.1-26.4
			c-0.3-3.9-2-4.8-5.3-5.5c-1.7-0.3-3.9-0.8-6.9-1.1C356.9,387,358.9,383.5,359.5,382.9L359.5,382.9L359.5,382.9z"/>
		<path class="st1" d="M226.1,455.7c-2.8-0.3-4.7-0.8-7.2-1.9c-0.3-0.2-0.9-1.3-0.9-1.8c-0.2-3.9-0.2-14.9-0.2-22.3
			c0-6-1-11.1-3.5-14.8c-3-4.2-7.3-6.6-12.8-6.6c-4.8,0-11.4,3.3-16.8,7.9c-0.1,0.1-1,0.9-0.9-0.3c0-1.2,0.2-3.6,0.3-5.3
			c0.1-1.5-0.8-2.3-0.8-2.3c-3.5,1.8-13.4,4.1-17.1,4.4c-2.6,0.6-3.3,3.1-0.6,4h0.1c3,0.9,5,1.9,6.5,2.9c1.1,0.9,1,2.1,1,3.1
			c0.1,8.3,0.1,20.9-0.2,27.9c-0.1,2.8-0.9,3.7-2.9,4.2l0.2-0.1c-1.5,0.3-2.8,0.7-4.6,0.9c-0.7,0.7-0.7,4.2,0,5
			c1.2,0,7.6-0.3,12.9-0.3c7.3,0,11,0.3,12.9,0.3c0.8-0.9,1-4.2,0.6-5c-2.1-0.1-3.6-0.3-5.1-0.8c-2-0.4-2.5-1.4-2.6-3.7
			c-0.2-5.8-0.2-18.2-0.2-26.6c0-2.3,0.7-3.4,1.3-4.1c2.5-2.2,6.6-3.7,10.2-3.7c3.5,0,5.8,1.1,7.6,2.5c2.4,2,3.2,4.8,3.5,6.9
			c0.6,4.7,0.3,14.1,0.3,22.3c0,4.4-0.3,5.5-2,6.1c-0.8,0.3-2.8,0.8-5.1,1c-0.8,0.8-0.6,4.2,0,5c3.2,0,6.9-0.3,12.5-0.3
			c6.8,0,11.2,0.3,13,0.3C226.4,459.8,226.6,456.6,226.1,455.7L226.1,455.7L226.1,455.7z M256.7,413.6c-5.8,0-9.5,4.5-9.5,11.6
			c0,7.2,3.2,15.4,12.2,15.4c1.5,0,4.4-0.7,5.7-2.2c2.1-2,3.5-6,3.5-10.1C268.7,419.1,264.2,413.6,256.7,413.6L256.7,413.6
			L256.7,413.6z M255.9,462.3c-2.2,0-3.7,0.7-4.7,1.2c-4.6,3-6.7,5.8-6.7,9.3c0,3.2,1.2,5.7,3.9,7.9c3.2,2.8,7.6,4.1,13.2,4.1
			c11.2,0,16.2-6.1,16.2-12c0-4.2-2.1-6.9-6.4-8.5C268.2,463,262.6,462.3,255.9,462.3L255.9,462.3L255.9,462.3z M256.7,491
			c-6.7,0-11.6-1.4-15.8-4.6c-4.1-3.1-5.8-7.7-5.8-10.9c0-0.9,0.2-3.3,2.2-5.5c1.2-1.3,3.9-3.9,10.1-8.2c0.2-0.1,0.3-0.2,0.3-0.4
			s-0.2-0.4-0.4-0.6c-5.2-2-6.7-5.2-7.2-6.9v-0.2c-0.1-0.7-0.3-1.3,0.7-2c0.8-0.6,1.9-1.2,3.1-2c1.9-1.1,3.9-2.3,5.1-3.3
			c0.2-0.2,0.2-0.4,0.2-0.7s-0.2-0.4-0.4-0.6c-7.7-2.5-11.6-8.3-11.6-16.9c0-5.6,2.5-10.7,7.1-13.9c3.1-2.4,10.8-5.4,15.9-5.4h0.3
			c5.2,0.1,8,1.2,12.1,2.6c2.2,0.8,4.3,1.1,7.2,1.1c4.3,0,6.2-1.3,7.7-2.9c0.1,0.2,0.3,0.8,0.4,2.2c0.1,1.4-0.3,3.5-1.4,5.1
			c-0.9,1.2-2.9,2.1-4.8,2.1H281c-2-0.2-2.9-0.4-2.9-0.4l-0.4,0.2c-0.1,0.2,0,0.4,0.1,0.8l0.1,0.2c0.2,1,0.7,4,0.7,4.7
			c0,9-3.6,13-7.5,16c-3.7,2.8-8,4.5-12.9,5c-0.1,0-0.6,0-1.5,0.1c-0.6,0-1.3,0.1-1.4,0.1h-0.1c-0.9,0.2-3.1,1.3-3.1,3.2
			c0,1.7,1,3.6,5.7,4c1,0.1,2,0.1,3.1,0.2c6.3,0.4,14.1,1,17.7,2.2c5.1,1.9,8.3,6.4,8.3,11.8c0,8.2-5.8,15.8-15.5,20.5
			C266.6,489.9,261.8,491,256.7,491L256.7,491L256.7,491z M319.5,414.2c-2.3,0-4.4,0.6-6,1.7c-4.3,2.6-6.5,7.9-6.5,15.6
			c0,14.4,7.3,24.6,17.6,24.6c3.1,0,5.5-0.9,7.6-2.6c3.2-2.6,4.8-7.9,4.8-15.3C337.1,423.8,329.9,414.2,319.5,414.2L319.5,414.2
			L319.5,414.2z M321.5,461.3c-18.7,0-25.5-13.8-25.5-26.7c0-9,3.6-16,10.9-20.9c5.2-3.2,11.4-5,16.9-5c14.3,0,24.4,10.2,24.4,25
			c0,10-4,18-11.6,22.8C332.9,459,326.6,461.3,321.5,461.3L321.5,461.3L321.5,461.3z M125.1,414.2c-2.3,0-4.4,0.6-6,1.7
			c-4.3,2.6-6.5,7.9-6.5,15.6c0,14.4,7.3,24.6,17.6,24.6c3.1,0,5.5-0.9,7.6-2.6c3.2-2.6,4.8-7.9,4.8-15.3
			C142.7,423.8,135.7,414.2,125.1,414.2L125.1,414.2L125.1,414.2z M127.1,461.3c-18.7,0-25.5-13.8-25.5-26.7c0-9,3.6-16,10.9-20.9
			c5.2-3.2,11.4-5,16.9-5c14.3,0,24.4,10.2,24.4,25c0,10-4,18-11.6,22.8C138.6,459,132.4,461.3,127.1,461.3L127.1,461.3L127.1,461.3
			z M1.1,460.2c-0.2-0.3-0.4-1.3-0.3-2.5c0-0.9,0.2-1.4,0.3-1.7c2.3-0.3,3.5-0.7,4.8-1c2.2-0.6,3.1-1.8,3.2-4.5
			c0.3-6.6,0.3-19.2,0.2-27.9v-0.2c0-1,0-2.2-1.2-3.1c-1.8-1.1-3.9-2.1-6.6-2.9c-1-0.3-1.7-0.9-1.5-1.5c0-0.7,0.7-1.4,2.1-1.7
			c3.6-0.3,13.1-2.6,16.9-4.3c0.2,0.2,0.6,0.9,0.6,1.8l-0.1,1.2c-0.1,1.2-0.2,2.6-0.2,4.1c0,0.4,0.4,0.8,0.9,0.8
			c0.2,0,0.4-0.1,0.7-0.2c7.1-5.5,13.4-7.5,16.7-7.5c5.4,0,9.6,2.5,12.8,7.8c0.2,0.3,0.4,0.4,0.8,0.4c0.2,0,0.6-0.1,0.7-0.3
			c6.5-5,13-7.9,17.3-7.9c10.2,0,16.3,7.6,16.3,20.5c0,3.6,0,8.4-0.1,12.7c0,3.9-0.1,7.4-0.1,9.9c0,0.6,0.8,2.3,2,2.6
			c1.5,0.8,3.6,1.1,6.4,1.5h0.1c0.2,0.8-0.2,3.6-0.7,4.2c-0.7,0-1.7,0-2.8-0.1c-2.1-0.1-5.1-0.2-8.4-0.2c-6.8,0-10.4,0.1-13.8,0.3
			c-0.2-0.9-0.3-3.5,0-4.2c2-0.3,3-0.7,4.2-1c2.2-0.7,2.8-1.7,2.9-4.5c0-2.1,0.4-19.9-0.2-24.2c-0.7-4.4-4-9.6-11.2-9.6
			c-2.8,0-7.1,1.1-11.2,4.3c-0.2,0.2-0.4,0.8-0.4,1.1v0.1c0.4,2.3,0.4,5,0.4,9v7.2c0,5-0.1,9.6,0,13.1c0,2.4,1.4,3,2.6,3.4
			c0.7,0.1,1.1,0.2,1.7,0.3c1,0.2,2,0.4,3.5,0.8c0.2,0.4,0.2,1.9-0.1,3.1c-0.1,0.7-0.3,1-0.4,1.1c-3.7-0.1-7.6-0.2-13.2-0.2
			c-1.7,0-4.5,0.1-6.9,0.1c-2,0-3.9,0.1-5,0.1c-0.1-0.2-0.3-1-0.3-2.2c0-1,0.2-1.8,0.4-2c0.6-0.1,1-0.2,1.5-0.2
			c1.3-0.2,2.4-0.4,3.5-0.7c1.9-0.6,2.5-1.5,2.6-4c0.3-5.5,0.7-21.3-0.1-25.2c-1.3-6.4-5-9.6-10.8-9.6c-3.4,0-7.7,1.7-11.2,4.3
			c-0.6,0.4-1,1.5-1,2.5v6.5c0,7.9,0,17.9,0.1,22.2c0.1,1.3,0.6,2.9,3.1,3.4c0.6,0.1,1.4,0.3,2.5,0.4l2,0.3c0.2,0.7,0.1,3.3-0.3,4.2
			c-1.1,0-2.4-0.1-4-0.1c-2.3-0.1-5.3-0.2-8.6-0.2c-3.9,0-6.6,0.1-8.8,0.2C3.6,460.2,2.4,460.2,1.1,460.2L1.1,460.2L1.1,460.2z"/>
		<g>
			<path class="st2" d="M268,382.9l-10.1-3.4c0,0,1.2-51.3-17.2-55c-12.3-14.2,2-603.6,46.1-2c0,0-15.2,7.6-17.9,20.6
				C266,355.9,268,382.9,268,382.9L268,382.9L268,382.9z"/>
			<path class="st3" d="M268,382.9l-10.1-3.4c0,0,1.2-51.3-17.2-55c-12.3-14.2,2-603.6,46.1-2c0,0-15.2,7.6-17.9,20.6
				C266,355.9,268,382.9,268,382.9L268,382.9L268,382.9z"/>
			<path class="st2" d="M273.4,333.3c0,0,88.1-57.9,67.5-178.4C321,67.3,274.1,38.6,269,27.6c-5.6-7.9-11-21.6-11-21.6l3.7,243.7
				C261.6,249.9,254,324.2,273.4,333.3"/>
			<path class="st4" d="M273.4,333.3c0,0,88.1-57.9,67.5-178.4C321,67.3,274.1,38.6,269,27.6c-5.6-7.9-11-21.6-11-21.6l3.7,243.7
				C261.6,249.9,254,324.2,273.4,333.3"/>
			<path class="st2" d="M252.8,336.5c0,0-82.7-56.4-77.8-155.8c4.7-99.4,63.1-148.2,74.3-157c7.4-7.9,7.6-10.8,8.1-18.6
				c5.2,11,4.2,165.1,4.9,183.3C264.6,258.2,258.4,323.3,252.8,336.5L252.8,336.5L252.8,336.5z"/>
			<path class="st5" d="M252.8,336.5c0,0-82.7-56.4-77.8-155.8c4.7-99.4,63.1-148.2,74.3-157c7.4-7.9,7.6-10.8,8.1-18.6
				c5.2,11,4.2,165.1,4.9,183.3C264.6,258.2,258.4,323.3,252.8,336.5L252.8,336.5L252.8,336.5z"/>
		</g>
	</g>
</g>
</svg>
