<?xml version="1.0" encoding="utf-8"?>
<!-- Generator: Adobe Illustrator 25.2.1, SVG Export Plug-In . SVG Version: 6.00 Build 0)  -->
<svg version="1.1" id="Layer_1" xmlns="http://www.w3.org/2000/svg" xmlns:xlink="http://www.w3.org/1999/xlink" x="0px" y="0px"
	 viewBox="0 0 512 512" style="enable-background:new 0 0 512 512;" xml:space="preserve">
<style type="text/css">
	.st0{clip-path:url(#SVGID_2_);}
	.st1{clip-path:url(#SVGID_4_);fill:#687E91;}
	.st2{clip-path:url(#SVGID_4_);fill:#F98A3C;}
	.st3{clip-path:url(#SVGID_4_);fill-rule:evenodd;clip-rule:evenodd;fill:#F98A3C;}
	.st4{clip-path:url(#SVGID_4_);fill-rule:evenodd;clip-rule:evenodd;fill:#687E91;}
</style>
<g>
	<g>
		<defs>
			<rect id="SVGID_1_" x="-28" y="47.9" width="588" height="414.3"/>
		</defs>
		<clipPath id="SVGID_2_">
			<use xlink:href="#SVGID_1_"  style="overflow:visible;"/>
		</clipPath>
		<g class="st0">
			<defs>
				<rect id="SVGID_3_" x="-28" y="47.9" width="588" height="414.3"/>
			</defs>
			<clipPath id="SVGID_4_">
				<use xlink:href="#SVGID_3_"  style="overflow:visible;"/>
			</clipPath>
			<path class="st1" d="M126.3,389.9H107c-0.7-32.5-2.6-63.1-5.6-91.7h-0.2l-29.3,91.7H57.2l-29.1-91.7h-0.2
				c-2.2,27.5-3.5,58.1-4.1,91.7H6.3c1.1-40.9,4-79.2,8.5-115h23.9l27.8,84.5h0.2l27.9-84.5h22.8
				C122.4,316.8,125.3,355.2,126.3,389.9"/>
			<path class="st1" d="M209.8,305.1c-7.8,42.5-18.2,73.5-31,92.7c-10,14.9-21,22.3-32.9,22.3c-3.2,0-7.1-1-11.8-2.9V407
				c2.3,0.3,4.9,0.5,8,0.5c5.6,0,10.1-1.5,13.5-4.6c4.1-3.7,6.1-7.9,6.1-12.6c0-3.2-1.6-9.7-4.8-19.6l-21.1-65.6h18.9l15.2,49.1
				c3.4,11.1,4.8,18.9,4.3,23.4c8.3-22.2,14.1-46.3,17.4-72.4H209.8z"/>
			<polygon class="st2" points="466.1,389.9 411.4,389.9 411.4,274.9 429.8,274.9 429.8,375.8 466.1,375.8 			"/>
			<path class="st3" d="M397.1,392.7l-21.1-10.4c1.9-1.5,3.7-3.2,5.3-5.1c9-10.6,13.5-26.2,13.5-46.9c0-38.1-14.9-57.1-44.8-57.1
				c-14.7,0-26.1,4.8-34.3,14.5c-9,10.6-13.5,26.1-13.5,46.7c0,20.2,4,35.1,11.9,44.5c7.3,8.5,18.2,12.8,32.9,12.8
				c5.5,0,10.5-0.7,15.1-2l27.5,16L397.1,392.7z M328.5,366.9c-4.7-7.5-7-19.5-7-36.1c0-29,8.8-43.5,26.4-43.5
				c9.2,0,16,3.5,20.3,10.4c4.7,7.5,7,19.4,7,35.8c0,29.2-8.8,43.8-26.4,43.8C339.6,377.3,332.9,373.9,328.5,366.9"/>
			<path class="st2" d="M294.1,358.1c0,9.8-3.6,17.8-10.7,24c-7.2,6.2-16.8,9.4-28.8,9.4c-11.2,0-22.2-3.6-32.7-10.7l4.9-9.9
				c9.1,4.5,17.3,6.8,24.7,6.8c6.9,0,12.3-1.5,16.3-4.6c3.9-3.1,6.3-7.3,6.3-12.8c0-6.8-4.8-12.7-13.5-17.6
				c-8.1-4.4-24.2-13.7-24.2-13.7c-8.7-6.4-13.1-13.2-13.1-24.5c0-9.3,3.3-16.8,9.8-22.6c6.5-5.7,15-8.6,25.3-8.6
				c10.7,0,20.4,2.9,29.1,8.5l-4.4,9.9c-7.5-3.2-14.9-4.8-22.1-4.8c-5.9,0-10.5,1.4-13.6,4.3c-3.2,2.8-5.2,6.5-5.2,10.9
				c0,6.8,4.9,12.7,13.9,17.7c8.2,4.4,24.7,13.9,24.7,13.9C289.6,340.1,294.1,346.9,294.1,358.1"/>
			<path class="st4" d="M489.2,236.4c-11.1-0.3-19.7,0.8-27,3.9c-2.1,0.8-5.4,0.8-5.7,3.5c1.1,1.1,1.3,2.9,2.2,4.5
				c1.7,2.8,4.6,6.5,7.2,8.5c2.9,2.2,5.8,4.4,8.9,6.4c5.4,3.4,11.5,5.3,16.8,8.6c3.1,1.9,6.1,4.4,9.2,6.5c1.5,1.1,2.5,2.9,4.4,3.6
				v-0.4c-1-1.2-1.3-3.1-2.2-4.5c-1.4-1.4-2.8-2.6-4.2-4c-4-5.4-9-10.1-14.5-14c-4.5-3.1-14.2-7.2-16-12.4c0,0-0.1-0.1-0.3-0.3
				c3.1-0.3,6.7-1.4,9.6-2.2c4.7-1.2,9-1,13.9-2.2c2.2-0.6,4.5-1.3,6.7-1.9v-1.3c-2.5-2.5-4.3-5.8-7-8.2
				c-7.1-6.1-14.9-12.1-22.9-17.1c-4.3-2.8-9.9-4.6-14.5-6.9c-1.7-0.8-4.4-1.2-5.4-2.6c-2.5-3.1-3.9-7.1-5.7-10.7
				c-4-7.6-7.9-16.1-11.4-24.2c-2.5-5.4-4-10.8-7.1-15.8c-14.3-23.6-29.9-37.9-53.8-52c-5.1-2.9-11.3-4.2-17.8-5.7
				c-3.5-0.1-7-0.4-10.4-0.6c-2.2-1-4.5-3.6-6.4-4.9c-7.9-5-28.4-15.8-34.2-1.5c-3.8,9,5.6,17.9,8.8,22.5c2.4,3.2,5.4,6.8,7.1,10.4
				c1,2.4,1.3,4.9,2.2,7.4c2.2,6.1,4.3,12.9,7.2,18.6c1.5,2.9,3.2,6,5.1,8.6c1.1,1.5,3.1,2.2,3.5,4.7c-1.9,2.8-2.1,6.9-3.2,10.4
				c-5,15.7-3.1,35.2,4,46.7c2.2,3.5,7.5,11.1,14.6,8.2c6.3-2.5,4.9-10.4,6.7-17.4c0.4-1.7,0.1-2.8,1-3.9v0.3
				c1.9,3.9,3.9,7.6,5.7,11.5c4.3,6.8,11.8,13.9,18.1,18.6c3.3,2.5,6,6.8,10.1,8.3V243h-0.3c-0.8-1.2-2.1-1.8-3.2-2.8
				c-2.5-2.5-5.3-5.6-7.2-8.3c-5.8-7.8-11-16.4-15.6-25.3c-2.2-4.3-4.2-9-6-13.3c-0.8-1.7-0.8-4.2-2.2-5c-2.1,3.1-5.1,5.7-6.7,9.4
				c-2.6,6-2.9,13.4-3.9,21c-0.6,0.1-0.3,0-0.6,0.3c-4.4-1.1-6-5.7-7.6-9.6c-4.2-9.9-4.9-25.7-1.3-37.1c1-2.9,5.1-12.1,3.5-14.9
				c-0.8-2.7-3.6-4.2-5.1-6.3c-1.8-2.6-3.8-6-5-8.9c-3.3-7.8-5-16.4-8.6-24.2c-1.7-3.6-4.6-7.4-6.9-10.7c-2.6-3.8-5.6-6.4-7.7-10.8
				c-0.7-1.5-1.7-4-0.6-5.7c0.3-1.1,0.8-1.5,2-1.8c1.8-1.5,6.9,0.4,8.7,1.3c5.1,2.1,9.5,4,13.8,6.9c1.9,1.4,4,4,6.5,4.7h2.9
				c4.4,1,9.5,0.3,13.6,1.5c7.4,2.4,14,5.8,20,9.6c18.2,11.5,33.2,27.9,43.4,47.5c1.7,3.2,2.4,6.1,3.9,9.4
				c2.9,6.8,6.5,13.8,9.5,20.4c2.9,6.5,5.7,13.2,9.9,18.6c2.1,2.9,10.4,4.4,14.2,6c2.8,1.2,7.1,2.4,9.6,3.9
				c4.7,2.9,9.4,6.3,13.9,9.5C481.8,230.1,488.7,233.6,489.2,236.4"/>
			<path class="st4" d="M347.4,115.6c-2.4,0-4,0.3-5.7,0.7v0.3h0.3c1.1,2.2,3.1,3.8,4.4,5.7c1.1,2.2,2.1,4.4,3.2,6.7
				c0.1-0.1,0.3-0.3,0.3-0.3c2-1.4,2.9-3.6,2.9-6.9c-0.8-1-1-1.9-1.7-2.9C350.3,117.4,348.5,116.7,347.4,115.6"/>
			<path class="st2" d="M502.4,389.9h2.9v-14.1H501l-3.5,9.6l-3.8-9.6h-4.2v14.1h2.7v-10.7h0.2l4,10.7h2.1l4-10.7V389.9z
				 M479.2,389.9h3v-11.7h4v-2.4h-11.2v2.4h4.1V389.9z"/>
		</g>
	</g>
</g>
</svg>
