<?xml version="1.0" encoding="utf-8"?>
<!-- Generator: Adobe Illustrator 25.2.1, SVG Export Plug-In . SVG Version: 6.00 Build 0)  -->
<svg version="1.1" id="Layer_1" xmlns="http://www.w3.org/2000/svg" xmlns:xlink="http://www.w3.org/1999/xlink" x="0px" y="0px"
	 viewBox="0 0 512 512" style="enable-background:new 0 0 512 512;" xml:space="preserve">
<style type="text/css">
	.st0{fill:url(#SVGID_1_);}
	.st1{fill:url(#SVGID_2_);}
	.st2{fill:url(#SVGID_3_);}
	.st3{fill:#231F1F;}
</style>
<g>
	<g transform="matrix(.569 0 0 .569 199.451 -82.735)">
		
			<linearGradient id="SVGID_1_" gradientUnits="userSpaceOnUse" x1="-16044.084" y1="-13911.4189" x2="-15871.8887" y2="-14013.166" gradientTransform="matrix(0.1187 0 0 0.1187 1953.0956 2323.8987)">
			<stop  offset="0" style="stop-color:#909CA9"/>
			<stop  offset="1" style="stop-color:#EDEDEE"/>
		</linearGradient>
		<path class="st0" d="M259.5,456.6L160.2,489l-86.5,38.2l-24.2,6.4c-6.2,5.9-12.6,11.8-19.6,17.8c-7.7,6.6-14.8,12.6-20.3,17
			c-6.1,4.8-15.1,13.8-19.7,19.5c-6.8,8.6-12.2,17.7-14.6,24.6c-4.1,12.6-2.1,25.4,5.9,37.2c10.2,15,30.6,30.3,54.3,40.8
			c12.1,5.3,32.4,12.2,47.8,16c25.5,6.5,74.7,13.4,101.9,14.5c5.5,0.2,12.8,0.2,13.1,0c0.6-0.4,4.8-8.4,9.7-18.4
			c16.7-34,28.7-65.9,35.2-93.2c3.9-16.5,7-38.5,9-64.6c0.5-7.3,0.8-31.7,0.3-40c-0.7-13.5-1.9-24.5-3.8-35.2
			c-0.3-1.6-0.4-3-0.2-3.1c0.3-0.2,1.2-0.5,13.4-4.1L259.5,456.6L259.5,456.6L259.5,456.6L259.5,456.6z M236.8,469.9
			c0.9,0,3.3,23.1,3.9,37.6c0.2,3.1,0.1,5.1-0.1,5.1c-0.6,0-12.7-7.1-21.3-12.5c-7.5-4.7-21.8-14.2-24-16c-0.8-0.5-0.7-0.6,5.5-2.7
			C211.2,477.9,236,469.9,236.8,469.9z M186.2,486.6c0.7,0,2.4,1,6.5,3.5c15.5,9.7,36.5,21.4,45.5,25.3c2.8,1.2,3.1,0.8-3.3,5.1
			c-13.7,9.3-30.7,18.5-51.6,27.7c-3.7,1.7-6.8,2.9-6.8,2.9c-0.1,0,0.3-1.9,0.9-4.1c5-18.7,7.9-37.6,8-52.8
			C185.5,486.7,185.5,486.7,186.2,486.6C186.1,486.6,186.1,486.6,186.2,486.6L186.2,486.6z M175.8,490.5c0.4,0.4,0.1,17.3-0.5,21.9
			c-1.4,11-3.5,21.2-6.9,32.7c-0.8,2.8-1.6,5.1-1.7,5.3c-0.3,0.4-10.6-9.7-14-13.6c-5.9-6.8-10.4-13.5-13.8-20.1
			c-1.7-3.4-4.4-10-4.2-10.2C135.9,505.6,175.5,490.2,175.8,490.5L175.8,490.5z M126.7,509.8c0.1,0,0.1,0,0.2,0.1
			c0.1,0.2,0.7,1.4,1.1,2.7c2.4,6.5,7.8,16.1,12.5,22.3c5.1,6.8,11.8,14,17.3,18.7c1.8,1.5,3.5,2.9,3.7,3.2c0.5,0.5,0.6,0.4-11.6,5
			c-14.2,5.4-29.7,10.8-47.4,16.5c-4.2,1.4-8.5,2.7-12.7,4.1c-0.7,0.2-0.5-0.2,1.5-3.2c8.8-13.7,22.2-40.7,29.7-59.8
			c1.3-3.3,2.6-6.6,2.8-7.4c0.3-1.1,0.7-1.4,1.7-2C125.9,510,126.4,509.8,126.7,509.8L126.7,509.8z M111.6,516.1
			c0.2,0.2-3.6,8.2-7.4,15.5C97,545.8,89,559.8,78.4,576.8c-1.8,2.9-3.5,5.6-3.8,5.9c-0.4,0.5-0.5,0.4-1.7-2
			c-2.6-5-4.7-11.5-5.8-17.4c-1.1-5.9-0.9-16.1,0.4-22.4c1-4.7,0.9-4.6,3.2-5.7C80.2,530.4,111.3,515.8,111.6,516.1L111.6,516.1z
			 M241.2,521.3v3.2c0,16.7-1.8,39.7-4.4,56.5c-0.5,2.9-0.8,5.3-0.9,5.4c0,0-2.2-0.6-4.7-1.4c-11.3-3.5-23.5-8.7-34.6-14.8
			c-7.3-4-17.9-10.5-17.6-10.8c0.1-0.1,3.2-1.7,6.9-3.7c14.7-7.7,28.8-15.9,41.1-24.1c4.6-3.1,11.5-8,13-9.4L241.2,521.3
			L241.2,521.3z M54.9,543.6c0.3,0,0.2,0.6-0.2,3.3c-0.3,2-0.7,5.6-0.8,8c-0.6,11,1.2,19.1,6.6,30.2c1.5,3.1,2.7,5.6,2.6,5.7
			c-0.5,0.5-50.2,15-65.9,19.3c-4.7,1.3-8.7,2.4-9,2.5c-0.5,0.2-0.6,0.1-0.4-1.2c1.7-11,10.1-25.5,21.9-37.6
			c7.8-8.1,14-12.8,24.7-18.9c7.7-4.4,19.5-10.9,20.4-11.2C54.8,543.6,54.8,543.6,54.9,543.6L54.9,543.6z M172.1,564.5
			c0.1-0.1,1.9,0.9,4.1,2.2c16.1,9.3,38.5,18,57.5,22.4l1.7,0.4l-2.4,1.4c-10,5.6-42.8,19.2-76.4,31.8c-4.9,1.8-9.7,3.6-10.6,4
			c-0.9,0.4-1.7,0.6-1.7,0.5c0-0.1,1.4-2.7,3.1-5.9c9.4-17.6,18.9-39,23.7-53.9C171.6,565.9,172,564.6,172.1,564.5L172.1,564.5z
			 M160.2,568.4c0.1,0.1-0.5,1.7-1.3,3.5c-6.5,15.8-15.1,33.1-26.1,52.5c-2.8,5-5.1,8.9-5.2,8.9c-0.1,0-2.3-1.4-5-3
			c-15.9-9.8-30-21.8-39.3-33.4l-1.4-1.7l6.8-1.9c24.5-6.7,45.3-13.9,65.9-22.8C157.7,569.4,160.1,568.4,160.2,568.4z M234.4,594.3
			C234.4,594.3,234.4,594.4,234.4,594.3c0.1,1.7-3.8,17.2-6.9,28.4c-2.6,9.4-4.9,16.8-9,29.7c-1.8,5.7-3.4,10.4-3.5,10.4
			c-0.1,0-0.5-0.1-1-0.2c-22.3-4.1-42.3-9.7-61.1-17.2c-5.3-2.1-12.8-5.5-13.2-5.9c-0.1-0.2,4.4-2.3,10.1-4.7
			c34.2-14.9,69.6-31.9,81.8-39.2C233,594.8,234.1,594.3,234.4,594.3L234.4,594.3z M63,600.2c0.2,0.1-9.4,13.9-22.8,32.6
			c-4.7,6.5-10.1,14.2-12.1,17c-2,2.9-5.1,7.4-6.8,10.1l-3.2,4.9l-3.4-2.9c-4-3.3-10.9-10.4-14-14.3c-6.5-8-10.8-16.5-12.5-24.3
			c-0.8-3.6-0.8-5.4-0.1-5.6c1.1-0.3,21.2-5,40-9.4c10.4-2.4,22.5-5.3,26.9-6.3C59.4,601,63,600.2,63,600.2L63,600.2z M72.6,603.9
			l2.4,2.7c10.8,12.1,21.9,21,35.2,28.8c2.4,1.4,4.2,2.6,4.1,2.6c-0.5,0.4-46.4,16.7-67.7,24c-11.9,4.2-21.8,7.6-21.9,7.6
			c-0.1,0-0.8-0.4-1.5-1l-1.4-1l2.2-3.2c7.1-10.2,15.9-21.4,35.2-44.7L72.6,603.9L72.6,603.9z M132.6,646.8c0.1-0.1,3.4,1.1,7.4,2.6
			c9.8,3.7,17.5,6,27.9,8.6c12.8,3.2,31.2,6.4,42.1,7.3c1.7,0.1,2.6,0.3,2.3,0.5c-0.5,0.3-11.6,4-19.7,6.5
			c-12.9,4.1-52.4,15.7-84.5,24.9c-5.9,1.7-11,3.2-11.3,3.2c-0.8,0.2-3.2-0.5-3.2-0.8c0-0.1,1.8-2.5,4-5
			c10.8-12.9,21.6-27.3,30.5-41C130.5,649.9,132.6,646.9,132.6,646.8L132.6,646.8z M119.4,647.2c0.1,0.1-5.3,8.6-14.6,23.4
			c-4,6.2-8.4,13.3-10,15.8c-1.5,2.4-3.8,6.2-5,8.3l-2.2,3.8l-1.1-0.3c-2.7-0.8-21.7-7.4-26.7-9.5c-6.2-2.5-12.7-5.5-17.5-8
			c-6-3.2-13.5-8-12.9-8.2c0.1-0.1,10.4-2.9,22.8-6.2c32.9-8.9,51.2-14.1,63.1-17.9C117.4,647.6,119.3,647.1,119.4,647.2
			L119.4,647.2z M212.9,669.1L212.9,669.1c0.4,0.8-11.8,34.6-16.2,45.2c-1,2.4-1.3,3-1.9,2.9c-1.3-0.1-18.9-2.6-29.7-4.1
			c-18.7-2.9-50.1-8.3-58-10.1l-1.8-0.4l11.2-2.6c24-5.4,35.6-8.3,47.3-11.9c14.8-4.5,29.4-10.1,44.2-17
			C210.4,670,212.4,669.2,212.9,669.1L212.9,669.1z"/>
		
			<linearGradient id="SVGID_2_" gradientUnits="userSpaceOnUse" x1="-16037.291" y1="-17281.6309" x2="-15898.7393" y2="-17281.6309" gradientTransform="matrix(0.1187 0 0 0.1187 1953.0956 2323.8987)">
			<stop  offset="0" style="stop-color:#939FAB"/>
			<stop  offset="1" style="stop-color:#DCDEE1"/>
		</linearGradient>
		<path class="st1" d="M157.1,225c-1.7-0.2-28.3,9.4-45.5,16.4c-23.2,9.5-41.2,18.5-52.4,26.3c-4.1,2.9-9.3,8.1-10.1,10.1
			c-0.3,0.8-0.5,1.7-0.5,2.6l10.1,9.5l24,7.7l57,10.2l65.2,11.2l0.7-5.6c-0.2,0-0.4-0.1-0.6-0.1l-8.6-1.4l-1.7-3.1
			c-8.9-15.6-18.6-35-24.3-48.1c-4.4-10.1-8.6-21.9-11-30.3C158.1,225.3,157.9,225,157.1,225L157.1,225L157.1,225L157.1,225z
			 M155.9,228.8L155.9,228.8c0.2,0.1,0.5,2.2,0.8,4.7c1.3,10.5,3.6,20.7,7.3,31.6c2.8,8.3,2.8,7.8-0.5,6.8c-7.7-2.1-42-8-66.8-11.5
			c-4-0.5-7.4-1.1-7.4-1.1c-0.3-0.3,18-9.8,26-13.6C125.5,241,153.8,229.2,155.9,228.8L155.9,228.8z M83.5,262.4l2.9,1
			c15.9,5.4,56,13.1,78,14.9c2.5,0.2,4.6,0.5,4.7,0.5c0.1,0.1-2,1.2-4.7,2.5c-10.7,5.3-22.4,11.9-30.5,16.9
			c-2.4,1.5-4.6,2.7-4.9,2.7c-0.3,0-1.9-0.3-3.5-0.5l-3-0.5l-7.5-7.4c-13.2-12.8-23.6-22.8-27.6-26.5L83.5,262.4z M80.5,264.8
			L91.1,278c5.8,7.3,11.6,14.4,12.9,16c1.3,1.6,2.3,2.9,2.3,2.9c-0.3,0.2-15.3-2.7-23.3-4.5c-8.2-1.9-11.6-2.8-16.6-4.4l-4.1-1.4
			v-1.1c0.1-5,6.5-12.5,17.3-20.2L80.5,264.8L80.5,264.8z M170.4,282.8c0.3,0,0.7,0.7,1.6,2.7c2.6,5.6,10.5,20.8,12.5,23.7
			c0.6,1,1.7,1.1-8.9-0.7c-25.5-4.1-33.7-5.5-33.7-5.6c0-0.1,0.8-0.6,1.7-1.1c7.9-4.4,15.8-9.9,22.9-15.8c1.7-1.4,3.3-2.8,3.6-3
			C170.2,282.8,170.4,282.7,170.4,282.8L170.4,282.8z"/>
		
			<radialGradient id="SVGID_3_" cx="-8959.1582" cy="-10589.7598" r="183.9554" gradientTransform="matrix(-0.114 -1.712736e-02 3.463960e-02 -0.228 -459.9448 -2163.9888)" gradientUnits="userSpaceOnUse">
			<stop  offset="0" style="stop-color:#EE352C"/>
			<stop  offset="1" style="stop-color:#A91D22"/>
		</radialGradient>
		<path class="st2" d="M49.6,276.7c0,0-1.7,2.6-0.1,6.5c1,2.4,3.8,5.3,7.1,8.3c0,0,33.4,32.6,37.5,37.3
			c18.5,21.3,26.5,42.4,27.3,71.4c0.5,18.6-3.1,35-11.9,54C93.8,488.3,60.9,525.9,10,567.7l7.4-2.5c4.8-3.6,11.3-7.4,26.7-15.8
			c35.4-19.4,75.2-37.2,124-55.5c70.3-26.4,185.9-57.4,251.7-67.5l6.8-1.1l-1.1-1.7c-6-9.3-10.1-15.1-15.1-21.3
			c-14.4-17.9-31.9-32.4-53.3-44.4c-29.4-16.4-67.5-29.3-115.7-38.8c-9.1-1.8-29.1-5.3-45.3-7.7c-34.4-5.3-56.6-9-81.1-13.2
			c-8.8-1.5-21.9-3.8-30.6-5.6c-4.5-1-13.1-3-19.9-5.3C59.1,285.2,51.2,283.1,49.6,276.7L49.6,276.7z M69,295.5
			c0.1-0.1,1.3,0.4,2.9,0.9c2.9,1,6.5,2.1,10.9,3.3c3.3,0.9,6.6,1.8,9.9,2.6c4.5,1.1,8.3,2.2,8.3,2.2c0.5,0.5,8.1,24.8,10.7,34.1
			c1,3.5,1.7,6.5,1.7,6.5c-0.1,0.1-0.9-1.2-1.9-2.9c-8.8-15.5-22.7-31.2-38.8-43.8C70.5,296.9,69,295.6,69,295.5L69,295.5z
			 M105.9,305.7c0.4,0,2,0.2,4.1,0.7c12.8,2.9,35.7,7.2,50.3,9.7c2.5,0.4,4.4,0.8,4.4,1c0,0.2-0.9,0.7-2,1.3
			c-2.5,1.3-12.5,7.2-15.8,9.5c-8.3,5.6-15.8,11.6-21.3,17c-2.2,2.2-4.1,4-4.1,4s-0.4-1.3-0.8-2.9c-2.7-10.4-8.3-25.9-13.4-36.8
			C106.5,307.3,105.8,305.8,105.9,305.7C105.8,305.8,105.8,305.7,105.9,305.7L105.9,305.7z M171,318.1c0.5,0.1,1.2,2.7,2.7,8.3
			c2.8,10.9,4.1,23.1,3.6,34.4c-0.2,3.2-0.3,6.1-0.5,6.5l-0.2,0.8l-3.9-1.3c-8-2.6-21.1-6.4-32.3-9.5c-6.4-1.7-11.6-3.3-11.6-3.5
			c0-0.5,9.3-9.8,13.3-13.3C149.7,333.8,170.3,317.9,171,318.1L171,318.1z M176.2,318.8c0.2-0.2,31.1,5.1,45.1,7.8
			c10.4,2,25.6,5.2,26.5,5.6c0.5,0.1-1.1,1.1-6.2,3.3c-19.8,8.9-34.6,17-49.2,26.7c-3.8,2.6-7.1,4.7-7.1,4.7c-0.1,0-0.1-2.2-0.1-4.8
			c0-14.3-2.9-28.7-8.1-40.9C176.5,320,176.1,318.9,176.2,318.8z M256,334.6c0.2,0.2-0.8,6.3-1.7,9.9c-2.7,11.2-10,27.8-18.9,43.4
			c-1.6,2.8-3,5-3.2,5.1c-0.1,0.1-2.2-1.1-4.5-2.4c-8.7-5.1-18.6-9.9-29.4-14.4c-3-1.3-5.6-2.3-5.7-2.5
			c-0.5-0.5,23.7-16.4,36.4-24.1C239.2,343.5,255.7,334.3,256,334.6L256,334.6z M261.7,335.5c0.7,0,14.3,3.8,21.5,5.9
			c17.7,5.3,37.9,12.7,51.2,18.7l5.5,2.5l-3.8,0.9c-32.3,7.4-59.9,16-86.6,26.8c-2.2,0.9-4.1,1.7-4.3,1.7c-0.2,0,0.6-1.7,1.6-3.8
			c8-17,13.2-34.9,14.5-50C261.3,336.6,261.5,335.5,261.7,335.5L261.7,335.5z M125.6,366.8c0.2-0.2,10.7,2.3,16.3,3.8
			c8.6,2.4,26.7,8.5,26.7,8.9c0,0.1-2,1.8-4.4,3.9c-9.8,8.2-19.3,16.8-30.6,27.8c-3.4,3.2-6.2,5.9-6.4,5.9c-0.2,0-0.2-0.5-0.2-1.1
			c1.7-12.6,1.4-28.8-1.1-45.3C125.8,368.6,125.5,366.8,125.6,366.8z M345,367c0.1,0.1-4.8,8-8,12.4c-4.5,6.5-11.1,15-26.1,33.8
			c-7.9,9.9-16.7,21.1-19.7,24.9c-3,3.8-5.5,6.9-5.6,6.9c-0.1,0-1-1.4-2.1-3c-8.4-12.6-18.5-23.7-30.4-33.6
			c-2.3-1.9-4.7-3.9-5.6-4.5c-0.8-0.6-1.5-1.2-1.5-1.3c0-0.2,12.8-5.7,22.5-9.6c17-6.9,40.1-15.2,57.5-20.5
			C335.2,369.6,344.9,366.8,345,367L345,367z M350.8,368.5c0.3-0.1,2.1,0.8,4.3,2.1c18.3,10.4,36.1,23.9,50.2,37.7
			c4,3.9,13.8,14.1,13.7,14.2c0,0-3.5,0.3-7.5,0.6c-31.6,2.4-72.1,9.1-111,18.5c-2.6,0.6-5,1.1-5.1,1.1c-0.1,0,2.8-2.9,6.5-6.5
			c22.8-22,33.3-35.9,45.6-60.7C349.1,371.9,350.6,368.7,350.8,368.5C350.7,368.5,350.7,368.5,350.8,368.5L350.8,368.5z
			 M183.5,385.6c1.1,0.2,10.8,4.8,18.2,8.5c6.8,3.4,16.9,8.8,17.4,9.2c0.1,0.1-3.5,2-8,4.1c-14.1,7.1-26.2,13.7-38.8,21.4
			c-3.6,2.2-6.6,4-6.7,4c-0.3,0-0.2-0.3,1.8-4c6.8-12.3,12.2-27,15.2-41.4C183,386.4,183.3,385.6,183.5,385.6L183.5,385.6z
			 M173.7,387.4c0.2,0.2-2.3,9.5-3.9,14.5c-3.1,9.5-8.3,21.5-13.3,30.5c-1.2,2.1-3,5.2-4,6.9l-1.9,3l-4.2-4.1
			c-4.9-4.7-8.9-7.7-14-10.3c-2-1.1-3.6-2-3.6-2.1c0-0.6,12.8-12.2,22.7-20.7C158.7,399.1,173.5,387.2,173.7,387.4L173.7,387.4z
			 M233.5,412l3.7,2.4c8.4,5.5,18.3,12.8,25.9,19.2c4.3,3.5,12.5,11,14.2,12.8l0.9,1l-6.1,1.7c-34.4,9.5-61,18-92,29.4
			c-3.5,1.3-6.4,2.3-6.6,2.3c-0.4,0-0.8,0.4,6.9-6.8c19.8-18.3,37.4-38.4,50.5-58L233.5,412L233.5,412z M217.8,415.9
			c0.1,0.1-10.1,14.6-16.3,22.8c-7.4,9.8-20.4,26.1-29.4,36.8c-3.8,4.4-7,8.1-7.1,8.2c-0.2,0.1-0.3-1.1-0.3-2.8
			c0-9.1-2.3-18.8-6.4-27c-1.7-3.5-2-4.3-1.7-4.7c1.4-1.3,23.3-13.7,37.1-21.2C203,423.1,217.5,415.7,217.8,415.9L217.8,415.9z
			 M122.8,439.2c0.2,0,2,0.9,3.9,2c4.8,2.6,9.1,5.6,12.9,8.7c0.1,0.1-1.8,1.7-4.4,3.6c-7.1,5.1-18,13.3-24.3,18.3
			c-6.6,5.3-6.8,5.4-6.1,4.3c5-7.6,7.4-11.9,10.1-17.4c2.3-4.9,4.7-10.7,6.3-15.7C121.9,440.8,122.7,439.2,122.8,439.2L122.8,439.2z
			 M148.1,459c0.4-0.1,0.8,0.6,2.9,3.6c4.3,6.4,7.6,14.9,8.4,21.9l0.1,1.5l-10.3,4c-18.4,7.1-35.4,14.2-46.9,19.5
			c-3.2,1.5-8.9,4.2-12.5,6c-3.7,1.9-6.7,3.3-6.7,3.2s2.3-1.8,5.2-3.9c22.5-16.3,41.9-34.2,56.5-52.1c1.6-1.9,3-3.6,3.2-3.7
			L148.1,459L148.1,459z M136.5,461.9c0.3,0.3-8.3,10-14.1,15.9c-14.5,14.8-28.8,26.4-46.6,37.6c-2.3,1.4-4.3,2.7-4.5,2.9
			c-0.5,0.3,0.1-0.5,8-8.9c5-5.3,8.7-9.8,13-15.4c2.9-3.7,3.4-4.2,7.5-7.1C110.7,478.8,136.2,461.6,136.5,461.9z"/>
	</g>
	<path class="st3" d="M92,357c-0.8,0-1.6,0.1-2.4,0.1c-15.9,0.8-26.7,7.9-32.9,21.5c-5.4,12.4-4.8,28.6,0.1,41
		c5.6,12.2,14.7,18.6,29.9,21c3.2,0.5,5.4,2.3,11.6,9.6l7.7,9h13.9l-9.2-9.3c-5.1-5.1-9.2-9.6-9.2-9.9c0-0.4,2-1.2,4.3-2
		c7.8-2.4,14.3-8.4,18.8-17.6c3.7-7.4,4.2-9.7,4.7-18.9C130.6,374,116.1,356.8,92,357L92,357L92,357z M104.2,428.8
		c-6.8,3.3-16.6,3.9-23,1.6c-6.6-2.4-13-9.3-15.9-17.1c-3.2-8.5-2.7-24.2,0.9-31.3c5.9-11.3,13.7-16.4,25.1-16.4
		c16.9,0,26.5,10.4,27.8,29.8C120.1,411.6,114.6,423.8,104.2,428.8L104.2,428.8z M344.3,380.5c-5.8,0-10.3,2.4-13.3,7l-2.4,3.7v-9.6
		h-10.1V439h10.1v-18.3c0-16.8,0.2-18.7,2.6-23.3c3.2-6.3,8.8-9.4,14.2-7.9l3.6,1.1v-9.9L344.3,380.5L344.3,380.5L344.3,380.5z
		 M285,379.9c-2,0-4.1,0.3-6.2,0.7c-13.5,3.5-21.1,16.4-20.6,29.7c0,11.1,2.2,16.7,7.5,22.5c11,9,21,9.7,34.4,4.9
		c2.3-1,4.8-2.1,4.8-2.1v-9l-4.8,2.5c-10.9,4.7-19.1,4.7-25.6-0.8c-4.2-4.3-6-9.4-6.9-15.2h40.7v-7.7
		C308.3,389.7,298.8,379.7,285,379.9L285,379.9L285,379.9z M268.6,405.1c0,0,1.5-9.8,7.1-13.7c2.7-1.9,5.8-2.8,8.8-2.8
		c3,0,6,1,8.5,2.9c5.1,3.9,6,13.6,6,13.6L268.6,405.1L268.6,405.1L268.6,405.1L268.6,405.1z M25.4,394.8
		c-10.9-6.6-15.8-11.4-15.2-17c1.7-15.6,21-13.4,31.6-7.5l0.1-10.5c0,0-5.9-2.6-14.3-2.7c-13-0.2-21.3,4.1-25.3,12.7
		c-5.8,12.8-0.7,22.4,17.8,33.1c10.4,6,14.9,11.3,14.9,17c0,11.8-14.2,15.9-28.9,8.5c-3-1.5-5.6-2.8-5.7-2.8
		c-0.5,3.3-0.3,11.3-0.3,11.3s4.5,1.9,11.3,3.2c16.8,3.3,32-4.5,33.5-17.3C46.1,410.9,41.8,404.6,25.4,394.8L25.4,394.8L25.4,394.8z
		 M433.5,379.8c-2,0-4.1,0.3-6.2,0.7c-13.5,3.5-21.1,16.4-20.6,29.7c0,11.1,2.2,16.6,7.5,22.5c11,9,21,9.8,34.5,4.9
		c2.3-1,4.8-2.1,4.8-2.1v-9l-4.8,2.5c-10.9,4.7-19.1,4.7-25.6-0.9c-4.2-4.3-6-9.3-6.9-15.2h40.6v-7.7
		C456.8,389.5,447.3,379.6,433.5,379.8L433.5,379.8L433.5,379.8z M417.1,405c0,0,1.5-9.8,7.1-13.8c2.7-1.9,5.8-2.8,8.8-2.8
		c3,0,6,1,8.5,2.9c5.1,3.9,6,13.6,6,13.6L417.1,405L417.1,405L417.1,405z M232.2,394.9c-10.9-6.6-15.8-11.4-15.2-17
		c1.7-15.6,21-13.4,31.6-7.5l0.1-10.5c0,0-5.9-2.6-14.3-2.7c-13-0.2-21.3,4.1-25.3,12.7c-5.8,12.8-0.6,22.4,17.8,33.1
		c10.4,6,14.9,11.2,14.9,16.9c0,11.8-14.2,16-28.9,8.5c-3-1.5-5.6-2.7-5.7-2.7C206.7,429,207,437,207,437s4.5,1.8,11.2,3.2
		c16.8,3.4,32-4.5,33.5-17.3C252.9,411,248.6,404.7,232.2,394.9L232.2,394.9L232.2,394.9z M492.8,380.3c-5.8,0-10.3,2.4-13.3,7
		l-2.4,3.7v-9.6h-10.1v57.4h10.1v-18.3c0-16.8,0.2-18.7,2.6-23.3c3.2-6.3,8.8-9.4,14.2-7.9l3.6,1.1v-10L492.8,380.3L492.8,380.3z
		 M152,394.6V358h-10.2v81h42.8v-9.6H152L152,394.6L152,394.6z M387.2,406l-8.4,21.8l-8.1-21.9l-8.2-24.3h-10.4
		c6.7,19.1,14.1,38.6,21.5,57.4c3.2,0.1,6.4,0,9.6,0l11.3-28.4l11.5-29h-10C396.1,381.5,391.7,393.1,387.2,406L387.2,406L387.2,406z
		 M175.4,335.9c1.6,0,3-0.5,4.1-1.7c1.1-1.1,1.7-2.4,1.7-4.1c0-1.6-0.6-3-1.7-4.1c-1.1-1.1-2.4-1.6-4.1-1.6c-1.7,0-3,0.5-4.1,1.6
		c-1.1,1.1-1.6,2.5-1.6,4.1c0,1.7,0.5,3,1.6,4.1C172.4,335.4,173.8,335.9,175.4,335.9L175.4,335.9L175.4,335.9z M171.8,326.6
		c1-1,2.2-1.4,3.7-1.4c1.4,0,2.6,0.5,3.6,1.4c1,1,1.5,2.2,1.5,3.6c0,1.4-0.5,2.7-1.5,3.7c-1,1-2.2,1.4-3.6,1.4
		c-1.4,0-2.6-0.5-3.6-1.4c-1-1-1.5-2.2-1.5-3.7C170.4,328.8,170.8,327.6,171.8,326.6z M174.2,330.8h0.7c0.5,0,0.9,0.5,1.3,1.3
		l0.8,1.8h1.2l-1-2c-0.4-0.8-0.8-1.2-1.2-1.4c0.6-0.1,1-0.3,1.4-0.7c0.3-0.3,0.5-0.8,0.5-1.3c0-0.6-0.2-1.1-0.6-1.4
		c-0.5-0.4-1.2-0.6-2.1-0.6h-2.1v7.3h1.1v-3.1L174.2,330.8L174.2,330.8z M174.2,327.4h0.9c0.7,0,1.1,0.1,1.4,0.3
		c0.2,0.2,0.3,0.5,0.3,0.9c0,0.8-0.5,1.2-1.5,1.2h-1.1L174.2,327.4L174.2,327.4L174.2,327.4z M6.2,330.1c0-2.6-0.1-4.5-0.1-5.6h0.1
		c0.3,1.3,0.6,2.3,0.8,3l9.8,21.8h1.6l9.8-22c0.3-0.6,0.5-1.5,0.8-2.8h0.1c-0.2,2.2-0.3,4.1-0.3,5.6v19.3h3.3v-28.6H28l-9,19.9
		c-0.3,0.8-0.8,2-1.4,3.5h-0.1c-0.2-0.8-0.7-2-1.3-3.4l-8.8-20.1H3v28.6h3.2L6.2,330.1L6.2,330.1L6.2,330.1z M39.5,330.2h2.9V348
		h-2.9V330.2z M41,323.6c0.6,0,1.1-0.2,1.5-0.6c0.4-0.4,0.7-0.9,0.7-1.5c0-0.6-0.2-1.1-0.7-1.5c-0.4-0.4-0.9-0.6-1.5-0.6
		c-0.6,0-1.1,0.2-1.5,0.6c-0.4,0.4-0.7,0.9-0.7,1.5c0,0.7,0.2,1.1,0.7,1.5C39.9,323.4,40.4,323.6,41,323.6L41,323.6L41,323.6z
		 M63,348.4v-3.1c-1.6,1.2-3.3,1.8-5,1.8c-2.1,0-3.8-0.7-5.1-2.1c-1.2-1.4-1.9-3.3-1.9-5.6c0-2.5,0.7-4.4,2-5.9
		c1.3-1.4,3-2.2,5.1-2.2c1.7,0,3.3,0.5,4.9,1.6v-3.3c-1.4-0.7-2.9-1.1-4.7-1.1c-3.3,0-5.8,1.1-7.7,3.1c-1.9,2-2.9,4.8-2.9,8.1
		c0,3,0.8,5.4,2.6,7.3c1.8,2,4.2,2.9,7.1,2.9C59.6,349.8,61.4,349.3,63,348.4L63,348.4z M71.2,338.9c0-2.4,0.5-4.3,1.5-5.6
		c0.9-1.2,2-1.8,3.3-1.8c1.1,0,1.9,0.2,2.5,0.7v-3.4c-0.5-0.2-1.1-0.3-2-0.3c-1.2,0-2.2,0.4-3.2,1.1c-1,0.8-1.8,2-2.2,3.5h-0.1v-4.2
		h-3.3v20.4h3.3L71.2,338.9L71.2,338.9z M90,349.8c3.1,0,5.6-1,7.4-3c1.8-2,2.7-4.6,2.7-7.9c0-3.3-0.8-5.9-2.6-7.8
		c-1.7-1.9-4.1-2.8-7.1-2.8c-3.1,0-5.6,0.9-7.4,2.7c-2,2-3,4.7-3,8.2c0,3.1,0.8,5.6,2.6,7.5C84.5,348.8,86.9,349.8,90,349.8
		L90,349.8L90,349.8z M85.4,333.1c1.2-1.3,2.9-2,4.9-2c2.1,0,3.7,0.7,4.9,2c1.2,1.4,1.8,3.3,1.8,6c0,2.5-0.5,4.5-1.6,5.8
		c-1.1,1.4-2.7,2.1-4.9,2.1c-2.1,0-3.7-0.7-5-2.1c-1.2-1.4-1.8-3.3-1.8-5.8C83.4,336.6,84.1,334.6,85.4,333.1L85.4,333.1z
		 M114.5,348c1.2-1.1,1.9-2.5,1.9-4.2c0-1.5-0.5-2.7-1.5-3.7c-0.8-0.8-2-1.5-3.8-2.2c-1.6-0.7-2.6-1.2-3.1-1.7
		c-0.5-0.5-0.8-1.2-0.8-2.1c0-0.8,0.3-1.5,1-2c0.7-0.5,1.5-0.8,2.6-0.8c1.8,0,3.3,0.5,4.7,1.4v-3.3c-1.3-0.7-2.8-1-4.4-1
		c-2.1,0-3.9,0.6-5.2,1.7c-1.4,1.1-2,2.6-2,4.3c0,1.5,0.5,2.7,1.3,3.7c0.7,0.8,2,1.6,3.7,2.3c1.6,0.7,2.7,1.4,3.3,1.9
		c0.6,0.5,0.8,1.2,0.8,2c0,1.9-1.3,2.9-3.9,2.9c-2,0-3.7-0.6-5.3-2v3.5c1.4,0.9,3.1,1.2,5,1.2C111.3,349.8,113.2,349.2,114.5,348
		L114.5,348L114.5,348z M130.1,328.3c-3.1,0-5.6,0.9-7.4,2.7c-2,2-3,4.7-3,8.2c0,3.1,0.8,5.6,2.6,7.5c1.8,2,4.3,3,7.3,3
		c3.2,0,5.6-1,7.4-3c1.8-2,2.8-4.6,2.8-7.9c0-3.3-0.9-5.9-2.6-7.8C135.5,329.2,133.1,328.3,130.1,328.3L130.1,328.3L130.1,328.3z
		 M136.5,339.1c0,2.5-0.5,4.5-1.6,5.8c-1.1,1.4-2.7,2.1-4.9,2.1c-2.1,0-3.7-0.7-5-2.1c-1.2-1.4-1.8-3.3-1.8-5.8c0-2.6,0.7-4.7,2-6
		c1.2-1.3,2.9-2,4.9-2c2,0,3.7,0.7,4.8,2C135.9,334.5,136.4,336.5,136.5,339.1L136.5,339.1L136.5,339.1z M145.3,349.3h3.3v-17.7h4.8
		v-2.7h-4.8v-3.2c0-2.9,1.1-4.3,3.4-4.3c0.8,0,1.6,0.2,2.1,0.5v-3c-0.6-0.3-1.4-0.3-2.4-0.3c-1.8,0-3.2,0.5-4.4,1.6
		c-1.4,1.3-2.1,3-2.1,5.3v3.4h-3.5v2.7h3.5L145.3,349.3L145.3,349.3z M158.7,343.7c0,4,1.8,6,5.4,6c1.3,0,2.3-0.2,3.1-0.7v-2.8
		c-0.6,0.5-1.3,0.7-2.1,0.7c-1.1,0-1.9-0.3-2.4-0.9c-0.5-0.6-0.7-1.6-0.7-2.9v-11.5h5.2v-2.7H162v-6c-1.1,0.4-2.2,0.7-3.3,1.1v5
		h-3.5v2.7h3.5L158.7,343.7L158.7,343.7z M510.2,381.4c-1.1-1.1-2.4-1.6-4.1-1.6c-1.7,0-3,0.5-4.1,1.7c-1.1,1.1-1.6,2.5-1.6,4.1
		c0,1.6,0.5,3,1.6,4.1c1.1,1.1,2.5,1.6,4.1,1.6c1.6,0,3-0.5,4.1-1.6c1.1-1.1,1.7-2.4,1.7-4.1C511.9,383.8,511.3,382.4,510.2,381.4
		L510.2,381.4z M509.7,389.1c-1,1-2.2,1.4-3.6,1.4c-1.4,0-2.6-0.5-3.6-1.4c-1-1-1.5-2.2-1.5-3.7c0-1.4,0.5-2.6,1.4-3.6
		c1-1,2.2-1.4,3.7-1.4c1.4,0,2.6,0.5,3.6,1.4c1,1,1.5,2.2,1.5,3.6C511.2,387,510.8,388.1,509.7,389.1z M506.8,385.8
		c0.6-0.1,1.1-0.4,1.4-0.7c0.3-0.3,0.5-0.8,0.5-1.3c0-0.6-0.2-1.1-0.6-1.4c-0.5-0.4-1.2-0.6-2.1-0.6h-2.1v7.3h1.1V386h0.7
		c0.5,0,0.9,0.5,1.3,1.3l0.8,1.8h1.2l-1-2C507.5,386.3,507.2,385.9,506.8,385.8L506.8,385.8L506.8,385.8z M506.1,385.1h-1.1v-2.5
		h0.9c0.7,0,1.1,0.1,1.4,0.3c0.3,0.2,0.3,0.5,0.3,0.9C507.5,384.7,507,385.1,506.1,385.1L506.1,385.1L506.1,385.1z M323.3,328h0.9
		v-7.3h2.4v-0.9h-5.8v0.9h2.4L323.3,328L323.3,328z M328.9,322.5c0-0.7,0-1.3-0.1-1.6c0.1,0.4,0.2,0.7,0.3,0.8l2.8,6.3h0.5l2.8-6.4
		c0.1-0.2,0.1-0.5,0.3-0.8c-0.1,0.7-0.1,1.2-0.1,1.6v5.6h1v-8.2h-1.2l-2.6,5.7c-0.1,0.2-0.3,0.6-0.4,1.1h-0.1
		c-0.1-0.3-0.2-0.5-0.4-1l-2.6-5.8h-1.3v8.3h0.9L328.9,322.5L328.9,322.5L328.9,322.5z"/>
</g>
</svg>
